<svg width="27" height="27" viewBox="0 0 27 27" fill="none" xmlns="http://www.w3.org/2000/svg">
<path d="M24 26.2236H2.66667C1.95942 26.2236 1.28114 25.9426 0.781051 25.4426C0.280952 24.9425 0 24.2642 0 23.557V8.9556C0.0221638 8.51491 0.151703 8.08626 0.377349 7.70699C0.602994 7.32771 0.917897 7.00939 1.29467 6.7796L11.9613 0.379627C12.3756 0.131215 12.8496 0 13.3326 0C13.8157 0 14.2897 0.131215 14.704 0.379627L25.3707 6.7796C26.172 7.26363 26.664 8.1303 26.6667 9.0663V23.557C26.6667 24.2642 26.3858 24.9425 25.8856 25.4426C25.3855 25.9426 24.7073 26.2236 24 26.2236ZM2.66667 10.0476V23.557H24V10.0476L13.3333 17.1583L2.66667 10.0476ZM13.3333 2.66629L4.42133 8.01297L13.3333 13.9543L22.244 8.01297L13.3333 2.66629Z" fill="#F0E3CA"/>
</svg>
