<svg width="33" height="33" viewBox="0 0 33 33" fill="none" xmlns="http://www.w3.org/2000/svg">
<g clip-path="url(#clip0_48_19)">
<path d="M16.8334 1.32375C7.99437 1.32375 0.833374 8.49075 0.833374 17.3237C0.833374 24.3968 5.41737 30.3918 11.7704 32.5067C12.5734 32.6577 12.8634 32.1627 12.8634 31.7348C12.8634 31.3547 12.8544 30.3498 12.8484 29.0158C8.39538 29.9797 7.45737 26.8647 7.45737 26.8647C6.72838 25.0208 5.67638 24.5258 5.67638 24.5258C4.22838 23.5367 5.79138 23.5578 5.79138 23.5578C7.39538 23.6667 8.23938 25.2027 8.23938 25.2027C9.66636 27.6507 11.9834 26.9428 12.9003 26.5307C13.0404 25.4997 13.4574 24.7908 13.9114 24.3957C10.3594 23.9947 6.62438 22.6197 6.62438 16.4887C6.62438 14.7377 7.24438 13.3118 8.26937 12.1918C8.09238 11.7908 7.55037 10.1607 8.41037 7.95676C8.41037 7.95676 9.74941 7.52975 12.8104 9.59778C14.1143 9.24311 15.4591 9.06124 16.8104 9.05675C18.1704 9.06574 19.5294 9.24372 20.8104 9.59778C23.8533 7.52975 25.1914 7.95676 25.1914 7.95676C26.0504 10.1607 25.5083 11.7898 25.3524 12.1918C26.3674 13.3118 26.9874 14.7387 26.9874 16.4887C26.9874 22.6337 23.2474 23.9888 19.6914 24.3797C20.2474 24.8587 20.7684 25.8437 20.7684 27.3387C20.7684 29.4788 20.7483 31.2027 20.7483 31.7237C20.7483 32.1397 21.0283 32.6398 21.8523 32.4788C28.2523 30.3857 32.8314 24.3857 32.8314 17.3227C32.8314 8.48975 25.6704 1.32275 16.8314 1.32275L16.8334 1.32375Z" fill="#F0E3CA"/>
</g>
<defs>
<clipPath id="clip0_48_19">
<rect width="32" height="32" fill="white" transform="translate(0.833374 0.927734)"/>
</clipPath>
</defs>
</svg>
